<svg width="24" height="33" viewBox="0 0 24 33" fill="none" xmlns="http://www.w3.org/2000/svg">
<path d="M12 25.2661C10.8634 25.2661 9.77327 24.8446 8.96954 24.0945C8.16582 23.3443 7.71429 22.3269 7.71429 21.2661C7.71429 20.7408 7.82514 20.2206 8.04052 19.7353C8.25589 19.25 8.57158 18.8091 8.96954 18.4376C9.36751 18.0662 9.83996 17.7716 10.3599 17.5705C10.8799 17.3695 13.6401 8.47555 12 17.2661C11.5586 19.6317 11.5743 20.8089 11.833 21.2661C12.5355 22.5077 15.0305 18.4376 15.0305 18.4376C15.8342 19.1878 16.2857 20.2052 16.2857 21.2661C16.2857 22.3269 15.8342 23.3443 15.0305 24.0945C14.2267 24.8446 13.1366 25.2661 12 25.2661ZM12 32.4661C8.8174 32.4661 5.76516 31.2861 3.51472 29.1857C1.26428 27.0853 8.34465e-07 24.2365 8.34465e-07 21.2661C8.34465e-07 12.8661 12 0.466064 12 0.466064C12 0.466064 24 12.8661 24 21.2661C24 24.2365 22.7357 27.0853 20.4853 29.1857C18.2348 31.2861 15.1826 32.4661 12 32.4661ZM12 29.2661C14.2733 29.2661 16.4535 28.4232 18.0609 26.9229C19.6684 25.4226 20.5714 23.3878 20.5714 21.2661C20.5714 19.6661 20.5714 16.4661 12 5.73007C3.42857 16.4661 3.42857 19.6661 3.42857 21.2661C3.42857 23.3878 4.33163 25.4226 5.93909 26.9229C7.54654 28.4232 9.72672 29.2661 12 29.2661Z" fill="#15803D"/>
</svg>
